HIERARCHY
ROOT Hips
{
	OFFSET 0.000000 0.000000 0.000000
	CHANNELS 6 Xposition Yposition Zposition Xrotation Yrotation Zrotation
	JOINT LeftUpLeg_virtual
	{
		OFFSET 0.000000 0.000000 0.000000
		CHANNELS 3 Xrotation Yrotation Zrotation
		JOINT LeftUpLeg
		{
			OFFSET 10.205400 -3.823500 0.155100
			CHANNELS 3 Xrotation Yrotation Zrotation
			JOINT LeftLeg
			{
				OFFSET 0.708757 -12.982077 0.567790
				CHANNELS 3 Xrotation Yrotation Zrotation
				JOINT LeftFoot
				{
					OFFSET -0.708756 -10.717838 -2.184338
					CHANNELS 3 Xrotation Yrotation Zrotation
					JOINT LeftToeBase
					{
						OFFSET 0.108149 -7.191104 7.560241
						CHANNELS 3 Xrotation Yrotation Zrotation
						JOINT LeftToe_End
						{
							OFFSET 0.070230 0.081724 4.490308
							CHANNELS 3 Xrotation Yrotation Zrotation
							End Site
							{
								OFFSET 0 0 0
							}
						}
					}
				}
			}
		}
	}
	JOINT RightUpLeg_virtual
	{
		OFFSET 0.000000 0.000000 0.000000
		CHANNELS 3 Xrotation Yrotation Zrotation
		JOINT RightUpLeg
		{
			OFFSET -10.205400 -3.823500 0.005500
			CHANNELS 3 Xrotation Yrotation Zrotation
			JOINT RightLeg
			{
				OFFSET -0.708756 -12.982134 0.610632
				CHANNELS 3 Xrotation Yrotation Zrotation
				JOINT RightFoot
				{
					OFFSET 0.708754 -10.717769 -1.945823
					CHANNELS 3 Xrotation Yrotation Zrotation
					JOINT RightToeBase
					{
						OFFSET -0.108140 -7.191069 7.372968
						CHANNELS 3 Xrotation Yrotation Zrotation
						JOINT RightToe_End
						{
							OFFSET -0.070227 0.081735 4.479403
							CHANNELS 3 Xrotation Yrotation Zrotation
							End Site
							{
								OFFSET 0 0 0
							}
						}
					}
				}
			}
		}
	}
	JOINT Spine_virtual
	{
		OFFSET 0.000000 0.000000 0.000000
		CHANNELS 3 Xrotation Yrotation Zrotation
		JOINT Spine
		{
			OFFSET 0.000000 6.876099 0.125700
			CHANNELS 3 Xrotation Yrotation Zrotation
			JOINT Spine1
			{
				OFFSET 0.000000 5.730043 0.104720
				CHANNELS 3 Xrotation Yrotation Zrotation
				JOINT Spine1_split
				{
					OFFSET 0.000000 5.730043 0.104720
					CHANNELS 3 Xrotation Yrotation Zrotation
					JOINT Spine2
					{
						OFFSET 0.000000 5.730043 0.104720
						CHANNELS 3 Xrotation Yrotation Zrotation
						JOINT Neck_virtual
						{
							OFFSET 0.000000 0.000000 0.000000
							CHANNELS 3 Xrotation Yrotation Zrotation
							JOINT Neck
							{
								OFFSET 0.000000 10.314075 0.188496
								CHANNELS 3 Xrotation Yrotation Zrotation
								JOINT Head
								{
									OFFSET 0.000000 7.643700 -2.377400
									CHANNELS 3 Xrotation Yrotation Zrotation
									JOINT HeadTop_End
									{
										OFFSET 0.000000 43.788605 -13.619600
										CHANNELS 3 Xrotation Yrotation Zrotation
										End Site
										{
											OFFSET 0 0 0
										}
									}
								}
							}
						}
						JOINT LeftShoulder_virtual
						{
							OFFSET 0.000000 0.000000 0.000000
							CHANNELS 3 Xrotation Yrotation Zrotation
							JOINT LeftShoulder
							{
								OFFSET 2.196100 4.412489 0.087492
								CHANNELS 3 Xrotation Yrotation Zrotation
								JOINT LeftShoulder_split
								{
									OFFSET 2.196100 4.412489 0.087492
									CHANNELS 3 Xrotation Yrotation Zrotation
									JOINT LeftArm
									{
										OFFSET 8.771219 -2.981674 -0.026999
										CHANNELS 3 Xrotation Yrotation Zrotation
										JOINT LeftForeArm
										{
											OFFSET 8.512804 0.000000 -0.000000
											CHANNELS 3 Xrotation Yrotation Zrotation
											JOINT LeftHand
											{
												OFFSET 18.484802 0.000000 -0.000000
												CHANNELS 3 Xrotation Yrotation Zrotation
												End Site
												{
													OFFSET 0 0 0
												}
											}
										}
									}
								}
							}
						}
						JOINT RightShoulder_virtual
						{
							OFFSET 0.000000 0.000000 0.000000
							CHANNELS 3 Xrotation Yrotation Zrotation
							JOINT RightShoulder
							{
								OFFSET -2.196100 4.412496 0.070690
								CHANNELS 3 Xrotation Yrotation Zrotation
								JOINT RightShoulder_split
								{
									OFFSET -2.196100 4.412496 0.070690
									CHANNELS 3 Xrotation Yrotation Zrotation
									JOINT RightArm
									{
										OFFSET -8.771282 -2.981682 -0.094208
										CHANNELS 3 Xrotation Yrotation Zrotation
										JOINT RightForeArm
										{
											OFFSET -8.494598 0.000000 0.000000
											CHANNELS 3 Xrotation Yrotation Zrotation
											JOINT RightHand
											{
												OFFSET -18.483803 0.000000 0.000001
												CHANNELS 3 Xrotation Yrotation Zrotation
												End Site
												{
													OFFSET 0 0 0
												}
											}
										}
									}
								}
							}
						}
					}
				}
			}
		}
	}
}
MOTION
Frames: 9
Frame Time: 0.03333333
0.325412 33.780212 -0.015186 0.000000 0.000000 0.000000 3.242564 -30.320364 2.283576 -11.702355 15.409793 13.327354 19.703614 13.148877 -4.505413 -10.974103 -3.533130 -8.404662 2.967598 0.473031 -0.227201 0.000000 0.000000 0.000000 3.823566 -29.626683 2.215978 0.998647 -1.992665 -10.549413 6.070523 12.237545 4.140778 -14.137366 -1.844014 5.093894 -0.885539 -0.837886 -0.455944 0.000000 0.000000 0.000000 3.237654 -28.979130 1.155526 7.443197 -0.165681 -1.098713 1.358289 -0.783233 2.357237 0.471957 0.162062 0.647026 0.000000 0.000000 0.000000 1.054251 -0.394631 2.510036 -4.571503 17.693569 -7.141397 -5.896284 15.393783 0.290171 0.000000 0.000000 0.000000 1.264032 -0.623225 2.626576 0.932527 -10.337881 0.310292 1.403527 -0.109847 0.305304 -59.831043 1.376188 -39.457631 9.359955 -59.990180 11.770783 0.000000 0.000000 0.000000 0.804232 -0.465176 2.685650 4.831634 6.078348 7.203134 -0.783193 -0.228961 -1.481080 0.119623 0.491709 63.356404 12.333746 23.482173 -3.907304 0.000000 0.000000 0.000000 
0.320115 33.785950 0.011276 0.000000 0.000000 0.000000 3.368646 -30.294280 2.307576 -11.767190 15.360447 13.352036 19.653835 13.133860 -4.447610 -10.992221 -3.508471 -8.449381 2.926329 0.477073 -0.235123 0.000000 0.000000 0.000000 3.945513 -29.589933 2.227705 0.957611 -1.924337 -10.524873 6.158180 12.299532 4.114208 -14.101054 -1.808596 5.134853 -0.893090 -0.858145 -0.460619 0.000000 0.000000 0.000000 3.377864 -28.902007 1.176256 7.406404 -0.156912 -1.117204 1.337438 -0.799595 2.363386 0.547547 0.124781 0.717384 0.000000 0.000000 0.000000 1.044769 -0.400236 2.530185 -4.515151 17.868794 -7.214936 -5.867568 15.423832 0.326885 0.000000 0.000000 0.000000 1.236936 -0.625811 2.641426 0.915074 -10.229341 0.186698 1.505724 -0.191609 0.373638 -59.765945 1.444489 -39.385644 9.521022 -60.026776 11.848999 0.000000 0.000000 0.000000 0.794769 -0.468827 2.699110 4.777574 6.131922 7.349376 -0.964172 -0.286117 -1.446426 0.193749 0.546662 63.323196 12.325554 23.249844 -3.897838 0.000000 0.000000 0.000000 
0.306585 33.785458 0.025774 0.000000 0.000000 0.000000 3.568142 -30.212263 2.346982 -11.928160 15.221657 13.393337 19.630380 13.117284 -4.404421 -11.027127 -3.459186 -8.546234 2.890205 0.477939 -0.221291 0.000000 0.000000 0.000000 4.130683 -29.533492 2.256301 0.846725 -1.861642 -10.479124 6.269772 12.358314 4.095130 -14.155629 -1.787237 5.143920 -0.838889 -0.875363 -0.463092 0.000000 0.000000 0.000000 3.619745 -28.831301 1.226023 7.375418 -0.134241 -1.133244 1.302689 -0.791808 2.366250 0.582723 0.058711 0.751124 0.000000 0.000000 0.000000 1.036483 -0.378462 2.538676 -4.408122 18.213990 -7.333571 -5.925275 15.626795 0.444404 0.000000 0.000000 0.000000 1.213608 -0.602129 2.646214 0.892346 -10.040401 0.062409 1.590851 -0.199758 0.463089 -59.745393 1.503075 -39.325408 9.611691 -60.170620 11.856687 0.000000 0.000000 0.000000 0.779937 -0.450156 2.700476 4.732344 6.203209 7.533086 -1.068345 -0.351322 -1.491830 0.278180 0.593442 63.285159 12.290798 23.017604 -3.901033 0.000000 0.000000 0.000000 
0.284679 33.778160 0.032064 0.000000 0.000000 0.000000 3.818880 -30.041300 2.398446 -12.175129 15.015467 13.444353 19.635522 13.108488 -4.388117 -11.078211 -3.390616 -8.669621 2.878249 0.475475 -0.190843 0.000000 0.000000 0.000000 4.359892 -29.448074 2.302288 0.666290 -1.818581 -10.430663 6.375553 12.416147 4.086128 -14.272613 -1.777788 5.150127 -0.743545 -0.884675 -0.468369 0.000000 0.000000 0.000000 3.932002 -28.757436 1.304604 7.344191 -0.101888 -1.142387 1.254320 -0.760281 2.364379 0.525112 -0.020111 0.735728 0.000000 0.000000 0.000000 1.027045 -0.334949 2.538965 -4.237787 18.734912 -7.532638 -6.083118 16.016717 0.608214 0.000000 0.000000 0.000000 1.196615 -0.558140 2.641572 0.871992 -9.798338 -0.039067 1.645613 -0.092682 0.578148 -59.786613 1.546920 -39.309586 9.608782 -60.328609 11.776252 0.000000 0.000000 0.000000 0.760924 -0.412968 2.691768 4.695875 6.299291 7.716884 -1.079062 -0.386843 -1.614638 0.361680 0.637673 63.271464 12.235398 22.777595 -3.912507 0.000000 0.000000 0.000000 
0.255962 33.765579 0.033298 0.000000 0.000000 0.000000 4.095517 -29.771903 2.459404 -12.488707 14.750779 13.499228 19.671278 13.117562 -4.408660 -11.139912 -3.306924 -8.798035 2.888513 0.471652 -0.141586 0.000000 0.000000 0.000000 4.621218 -29.295682 2.366589 0.447381 -1.808625 -10.392835 6.463449 12.475986 4.087566 -14.428655 -1.776521 5.173288 -0.645138 -0.886088 -0.473201 0.000000 0.000000 0.000000 4.291141 -28.636386 1.407398 7.302157 -0.066111 -1.146798 1.202277 -0.710785 2.356547 0.441462 -0.133913 0.733716 0.000000 0.000000 0.000000 1.015600 -0.277088 2.532272 -3.985221 19.439111 -7.857377 -6.346647 16.610349 0.784991 0.000000 0.000000 0.000000 1.187615 -0.500528 2.631671 0.861644 -9.532538 -0.104578 1.674670 0.089764 0.691934 -59.907357 1.610082 -39.364071 9.511874 -60.430461 11.606198 0.000000 0.000000 0.000000 0.744147 -0.363351 2.676314 4.667006 6.420057 7.860515 -1.028806 -0.368715 -1.770156 0.451064 0.660806 63.298491 12.165607 22.555679 -3.928026 0.000000 0.000000 0.000000 
0.217623 33.748970 0.028059 0.000000 0.000000 0.000000 4.387000 -29.399702 2.535261 -12.828519 14.444115 13.548122 19.724820 13.140183 -4.470597 -11.200213 -3.221768 -8.919263 2.903813 0.465897 -0.070643 0.000000 0.000000 0.000000 4.899324 -29.031121 2.446357 0.217828 -1.849311 -10.364520 6.532543 12.528740 4.094916 -14.611986 -1.787653 5.201061 -0.550017 -0.879800 -0.471488 0.000000 0.000000 0.000000 4.670843 -28.424980 1.527920 7.237744 -0.029991 -1.150617 1.154060 -0.651671 2.341192 0.370103 -0.295664 0.762715 0.000000 0.000000 0.000000 1.002338 -0.211655 2.519968 -3.629305 20.330000 -8.353912 -6.715143 17.434193 0.936878 0.000000 0.000000 0.000000 1.191179 -0.436578 2.619719 0.865201 -9.274688 -0.119933 1.696229 0.236272 0.755771 -60.148811 1.693220 -39.525840 9.348108 -60.462767 11.371496 0.000000 0.000000 0.000000 0.734906 -0.307546 2.656329 4.644764 6.563758 7.930932 -0.927911 -0.321133 -1.914216 0.534390 0.615270 63.377073 12.091125 22.376490 -3.946520 0.000000 0.000000 0.000000 
0.169698 33.729328 0.021149 0.000000 0.000000 0.000000 4.679242 -28.923611 2.626975 -13.172463 14.095563 13.594403 19.783564 13.165182 -4.570547 -11.253258 -3.150418 -9.039067 2.916729 0.457858 0.014979 0.000000 0.000000 0.000000 5.177183 -28.646640 2.534274 -0.014009 -1.965670 -10.333273 6.612958 12.546512 4.098300 -14.821090 -1.824059 5.200597 -0.440118 -0.869407 -0.453994 0.000000 0.000000 0.000000 5.055735 -28.095420 1.656199 7.149112 0.005981 -1.159998 1.120567 -0.591352 2.314646 0.348472 -0.443773 0.804868 0.000000 0.000000 0.000000 0.997034 -0.144837 2.502764 -3.150702 21.405106 -9.046857 -7.182859 18.480421 1.047836 0.000000 0.000000 0.000000 1.206087 -0.370975 2.605448 0.882353 -9.049071 -0.097174 1.722726 0.298099 0.797506 -60.527477 1.783970 -39.806845 9.182978 -60.466326 11.129126 0.000000 0.000000 0.000000 0.729152 -0.250186 2.631405 4.629868 6.723307 7.923285 -0.789779 -0.282052 -2.010815 0.618499 0.454330 63.493234 12.020981 22.276155 -3.962823 0.000000 0.000000 0.000000 
0.115723 33.707596 0.015619 0.000000 0.000000 0.000000 4.965848 -28.347399 2.722818 -13.511152 13.706490 13.647078 19.846904 13.168766 -4.703128 -11.299222 -3.111943 -9.168659 2.943511 0.445949 0.106410 0.000000 0.000000 0.000000 5.446415 -28.134659 2.619986 -0.240557 -2.181894 -10.288305 6.738770 12.515053 4.096513 -15.056882 -1.893879 5.154546 -0.325181 -0.862857 -0.420552 0.000000 0.000000 0.000000 5.427215 -27.637681 1.780630 7.037294 0.042599 -1.177311 1.107627 -0.533597 2.277434 0.363093 -0.548027 0.862541 0.000000 0.000000 0.000000 1.008662 -0.080386 2.481703 -2.530241 22.640817 -9.941386 -7.735907 19.716845 1.114479 0.000000 0.000000 0.000000 1.229402 -0.304043 2.590711 0.908578 -8.861645 -0.055055 1.744310 0.346884 0.784369 -61.005849 1.885276 -40.161123 9.051888 -60.476366 10.912354 0.000000 0.000000 0.000000 0.723559 -0.197866 2.601933 4.619035 6.897969 7.846444 -0.632274 -0.274785 -2.067998 0.747631 0.171025 63.608534 11.969691 22.251740 -3.973597 0.000000 0.000000 0.000000 
0.058274 33.684261 0.015594 0.000000 0.000000 0.000000 5.246742 -27.653030 2.811541 -13.845027 13.282356 13.714170 19.924007 13.135145 -4.864236 -11.352256 -3.127843 -9.308254 2.994644 0.428342 0.190992 0.000000 0.000000 0.000000 5.700566 -27.497191 2.693065 -0.458253 -2.506960 -10.228931 6.933619 12.432752 4.095085 -15.322957 -1.991821 5.073542 -0.221195 -0.863684 -0.381091 0.000000 0.000000 0.000000 5.775531 -27.050232 1.890290 6.910280 0.084847 -1.200022 1.113866 -0.478284 2.233603 0.396847 -0.631650 0.870930 0.000000 0.000000 0.000000 1.030561 -0.019225 2.457479 -1.770531 23.983221 -11.019563 -8.348222 21.070061 1.150411 0.000000 0.000000 0.000000 1.255462 -0.234554 2.577437 0.939223 -8.707971 -0.010883 1.793174 0.429802 0.740127 -61.487070 1.996836 -40.496929 8.978088 -60.495648 10.741913 0.000000 0.000000 0.000000 0.719547 -0.149520 2.569177 4.606077 7.092525 7.709915 -0.458951 -0.285639 -2.095633 0.963676 -0.191987 63.690701 11.946348 22.272817 -3.984707 0.000000 0.000000 0.000000 
